<svg xmlns="http://www.w3.org/2000/svg" viewBox="0 0 566.73 450.6" width="566.73" height="450.6"><metadata><rdf:RDF xmlns:rdf="http://www.w3.org/1999/02/22-rdf-syntax-ns#" xmlns:dc="http://purl.org/dc/elements/1.1/"><rdf:Description><dc:creator>RealFaviconGenerator</dc:creator><dc:source>https://realfavicongenerator.net</dc:source></rdf:Description></rdf:RDF></metadata><defs>
    <linearGradient id="Unbenannter_Verlauf_6" x1="401.07" x2="290.66" y1="296.74" y2="400.32" data-name="Unbenannter Verlauf 6" gradientUnits="userSpaceOnUse">
      <stop offset="0" stop-color="#540517"></stop>
      <stop offset="1" stop-color="#6d061a"></stop>
    </linearGradient>
    <style>
      .viterex-4 {
        fill: #d01e28
      }

      .viterex-5 {
        fill: #e51a1f
      }

      .viterex-6 {
        fill: #940a20
      }

      .viterex-8 {
        fill: #e82424
      }

      .viterex-9 {
        fill: #af1023
      }

      .viterex-12 {
        fill: #ec372f
      }

      .viterex-13 {
        fill: #540517
      }

      .viterex-14 {
        fill: #fb4825
      }
    </style>
  </defs><path d="m335.47 216.85 1.41 4.14 21.19 52.05 15.91-6.74 37.61-16.64c-.55 2.24-2.23 3.57-3.68 5.28L385.7 281.1c-.27.32.16.83.2.97l-27.53-8.89-21.5 8.53-15.55 92.96c.78.5.2.69-.25.75-.41.06-.39.55-.33.89l-.76-.08c.12-.27 1.04-.9.95-1.28s-1.22-.79-1.48-1.1l-3.54-4.27-5.23-6.32-2.82-3.17-11.59-13.86-6.56-8.01-3.05-3.69-11.48-13.46-7.1-8.65c-.7.98.02 2.03.05 3.03l.36 15.27.49 15.99.52 17.26.55 16.26.34 14.34.94 31c.04 1.29.82 2.47-.23 3.92.73.2.91.08 1.25.15-.28.2-.51.56-.78 1.05l-56.74-47.22c1.25.04 1.46-.29 2.2-1.31l42.87-59.51 7.92-11.11.93-.52c2.29-1 4.68-1.56 7.18-2.85l60.63-26.42-32.95-23.93 29.38-38.87c.68-.9 1.26-1.63 1.2-2.59.07.2.35.2.45-.03.06.29.64.7.84.51Z" class="viterex-9"></path><path d="m431.23 112.55 20.02 43.48-14.32 59.27c-.21.86-.41 1.83.33 2.1l-6.05 8.74-12.54-19.7-35.73.19h-15.58c-.79-.01-1.22.27-2.19.56l-27.15 8.27c-.36.11-.96.4-1.14.66-.13.17.45.52.44.68-.56-.08-1.3-.5-1.86.04-.2.19-.77-.22-.84-.51.19-.36.52-.74.12-1.31l-9.67-54.42c-.37-.37-.47-1.14-.16-1.65.2-.33.55-.74 1.01-.97-.01.31.14.7.33.72l1.25.14 40.67 1.46 25.03.78c2.19.07 3.07.34 3.75 2.56.84 2.76 2.6 5.45 3.98 7.89.09-.11.25-.25.46-.34l-4.11-7.78c-.42-.79-.78-1.68-.69-2.56 5.39-1.25 10.57-3.05 16.04-4.68l7.46-2.21c3.48-1.03 7-2.33 10.48-2.25 4.61.1 9.39 2.1 14.18 2.45l.3-.4-9.24-1.94c-1.69-.35-3.16-.24-4.83-1.16l-8.32-4.55-4.45-2.01-23.9-12.04 35.21-18.79c-.12-2.01-4.14-1.32-4.5-3.41l6.17 2.66Z" class="viterex-4"></path><path fill="url(#Unbenannter_Verlauf_6)" d="m385.89 282.05 19.81 6.57c.49.16.68.46.5 1.06l-9.98 9.94-21.88 21.33-3.32 3.05c-.41-.04-.77.22-.96.45-.34.43-.27.91-.37 1.31l-1.81 7.19-4.5 18.88-2.98 12.03-12.32 51.74-3.64 3.97-3.5 3.97-3.96 4.47-3.02 3.51-3.46 3.96-2.53 3.02-3.48 3.99-3.43 3.97c-.35.03-.59.28-.82.75l-.51 1.09c-.12.26-1.28.14-1.27-.3l.31-12.85.39-12.97.61-15.39.47-10.99.56-11.75c.13-2.63.42-5.32-.07-7.74-.07-.34-.08-.83.33-.89.45-.06 1.03-.25.25-.75l15.55-92.96 21.5-8.53 27.53 8.89Z"></path><path d="M379.39 91.54c-1.05.96-2.32-.15-3.52-.62l-7.71-3-1.86.46-3.85 27.9c-.28 2.03-.83 4.5-.45 6.46l5.66 8.56 14.52-1.63-22.72 11.59-33.5 16.74c-.45.23-.81.64-1.01.97-.31.51-.21 1.28.16 1.65-.52 0-.72-.36-.74-.98-1.83 1.43-3.14 3.07-4.82 5.04l-31.34 36.75-18.52 21.83c-.5.59-.36 1.03.24 1.5-.24-.02-.63.18-.72.35s.02.53.05.75c-.17.01-.47.08-.56.21s-.33.47-.34.89l-.61 68.02v14.12c-.46.03-1.46-.11-1.81-.76l-16.25-30.14-10.17-18.62c-.28-.52.37-1.5.23-2.02l28.63-32.77-51.67-8.23 107.89-57.83-54.31-58.7 91.06 22.23-23.99-47.58 42.05 16.86Z" class="viterex-8"></path><path d="m267.71 309.11.1 2.44-7.92 11.11-42.87 59.51c-.74 1.02-.95 1.35-2.2 1.31-.52-.43-42.6-41.94-42.6-41.94l15.06-24.08c.94.47 1.27-1.2 1.76-1.54l50.6-2.67 26.1-1.83-58.61-12.06c-1.64-.34-2.81-.4-4.12.21l36.71-41.99c.15.51-.51 1.5-.23 2.02l10.17 18.62 16.25 30.14c.35.65 1.35.79 1.8.76Z" class="viterex-4"></path><path d="m379.39 91.54 19.88 7.81 25.8 10.54c.36 2.09 4.38 1.4 4.5 3.41l-35.21 18.79 23.9 12.04 4.45 2.01 8.32 4.55c1.67.91 3.14.8 4.83 1.16l9.24 1.94-.3.4c-4.79-.35-9.57-2.35-14.18-2.45-.43-.91-1.4-1.21-2.37-1.7l-36.81-18.37-6.36-3.05c.15 5.51.41 10.67 2.07 15.72 1.63 4.98 4.57 9.17 7.11 13.8.55 1.01 1.39 2.85 2.39 2.73-.09.88.27 1.77.69 2.56l4.11 7.78c-.22.09-.38.23-.46.34-1.38-2.44-3.14-5.13-3.98-7.89-.67-2.23-1.56-2.49-3.75-2.56l-25.03-.78-40.67-1.46-1.25-.14c-.2-.02-.34-.42-.33-.72l33.5-16.74 22.72-11.59-14.52 1.63-5.66-8.56c-.38-1.96.17-4.43.45-6.46l3.85-27.9 1.86-.46 7.71 3c1.2.47 2.47 1.58 3.52.62Z" class="viterex-12"></path><path d="M507.84 154.12c-1.24-1.42-2.97-.78-4.74-.71l-12.56.49-12.48.48-12.06.46-12.28.54c.56 2.14 2.57 1.87 3.59 2.28l8.6 3.39 11.84 4.7c3.81 1.52 7.14 3.39 9.63 6.85 1.65 2.29 3.83 4.27 5.05 6.95l.84-.46c-.25 1.13.46 1.54 1.29 2.22l21.06 17.25c.92.76 1.38 1.93 2.87 1.69-.42-1.09-.41-1.98.09-2.36 1.24 5.06.14 4.74-.99 6.98l-14.41 28.73c-.9-1.08-1.09-1.82-1.39-2.44.61-.07 1.12.68 1.35 1.07l.68-1.46 3.95-8.42c1.44-1.44 1.81-3.54 2.68-5.21l7.87-15.07-25.98 5.23c-.41.08-.92.16-.96.41l-.14.88c-.22-.2-.36-.63-1.02-.84L484.96 218l-6.4 12.19c-1.02-.75-1.07-1.69-1.37-2.36 1.22-.75.59.35.86.38.55.06.9-.76 1.08-1.09l4.81-9.12 5.59-11.07-15.49-20.54-22.79-30.33-20.02-43.48 74.85 39.75c1.23.66 1.48.69 1.76 1.82Z" class="viterex-6"></path><path d="m337.33 216.8 15.1 2.16 29.16 4.61c.59.09 1.56.31 2.23.1.42-.13.57-.78.95-1.4l17.92 15.97 6.49 6.52 4.04 4.32c-.69.11-1.32.27-1.63.55l-37.61 16.64-15.91 6.74-21.19-52.05-1.41-4.14c.56-.54 1.3-.12 1.86-.04Z" class="viterex-8"></path><path d="m477.19 227.81-8.4-18.77-13.93 18.59-9.85-21.28-7.74 11.05c-.74-.27-.54-1.24-.33-2.1l14.32-59.27 22.79 30.33 15.49 20.54-5.59 11.07-4.81 9.12c-.18.33-.53 1.15-1.08 1.09-.27-.03.36-1.13-.86-.38Z" class="viterex-9"></path><path d="M321.08 446.46c-.73 1.48-1.44 3.01-3.01 4.14l-46.5-19.91c.27-.48.49-.85.78-1.05.94-.67 1.51-1.66 2.41-2.67l27.64-30.99 5.9-6.5 5.31-5.8c2.27-2.48 4.71-4.69 6.38-7.45l.76.08c.49 2.43.2 5.11.07 7.74l-.56 11.75-.47 10.99-.61 15.39-.39 12.97-.31 12.85c-.01.44 1.15.55 1.27.3l.51-1.09c.22-.47.46-.72.82-.75" class="viterex-13"></path><path d="M469.85 279.45c.21.28.16.85-.5.91l.24 32.9c1.5-.73 1.72-1.9 2.41-2.8l7.71-10.13c.59-.77 1.01-2.04 2.2-1.76L469.67 315l-46.08-19.05c1.09-.26 1.65-1.02 2.53-1.84l7.97-7.49 7.45-6.97 6.6-6.28 7.07-6.94 9.45-8.82 4.26 21.01c.14.7.52.97.92.82Zm37.99-125.33 10.74 43.76c-.5.38-.5 1.26-.09 2.36-1.48.24-1.94-.93-2.87-1.69l-21.06-17.25c-.84-.69-1.54-1.1-1.29-2.22 1.84-6.72 3.35-13.69 4.19-20.84-5.94 1.6-11.56 3.4-17.63 3.6l-13.39-1.25c-.44-.04-.56.24-.52.45l-8.6-3.39c-1.02-.4-3.03-.14-3.59-2.28l12.28-.54 12.06-.46 12.48-.48 12.56-.49c1.76-.07 3.5-.71 4.74.71Z" class="viterex-9"></path><path d="m413.22 249.1 6.91 6.66 9.21 8.08-6.65 7.31-4.8 5.21-10.11 11.67 1.55 1.93c-.6-.25-1.42-.26-2.09-1.01-.57.37-.74.63-1.05.73.18-.6 0-.89-.5-1.06l-19.81-6.57c-.04-.13-.47-.65-.2-.97l22.21-26.16c1.45-1.71 3.13-3.03 3.68-5.28.31-.28.94-.44 1.63-.55Z" class="viterex-6"></path><path d="m448.14 273.36-6.6 6.28-7.45 6.97-7.97 7.49c-.88.83-1.43 1.58-2.53 1.84l-14.25-5.99-1.55-1.93 10.11-11.67 4.8-5.21 6.65-7.31 12.63-12.85 6.17 22.37Z" class="viterex-4"></path><path d="m187.28 317.45 15.73-17.89c1.31-.61 2.48-.55 4.12-.21l58.61 12.06-26.1 1.83-50.6 2.67c-.49.34-.82 2.02-1.76 1.54" class="viterex-12"></path><path d="M481.91 298.57c-1.19-.28-1.61.98-2.2 1.76L472 310.46c-.69.91-.91 2.07-2.41 2.8l-.24-32.9c.66-.06.71-.63.5-.91l15.9-14.1 3.56 23.18-7.4 10.05Zm19.88-67.43-10.54-22.57.14-.88c.04-.25.56-.33.96-.41l25.98-5.23-7.87 15.07c-.87 1.67-1.24 3.77-2.68 5.21l-3.95 8.42-.68 1.46c-.23-.38-.74-1.14-1.35-1.07Z" class="viterex-6"></path><path d="m367.37 206.62 4.97 4.83 12.43 10.83c-.37.61-.53 1.26-.95 1.4-.67.21-1.64 0-2.23-.1l-29.16-4.61-15.1-2.16c0-.16-.57-.5-.44-.68.18-.25.78-.55 1.14-.66l27.15-8.27c.96-.29 1.4-.58 2.19-.57Z" class="viterex-9"></path><path d="m321.08 446.46 3.43-3.97 3.48-3.99 2.53-3.02 3.46-3.96 3.02-3.51 3.96-4.47 3.5-3.97 3.64-3.97 12.32-51.74 2.98-12.03 4.5-18.88 1.81-7.19c.1-.4.03-.88.37-1.31.19-.24.55-.5.96-.45l-15.32 63.02-6.77 28.66-3.97 4.39-3.5 3.99-3.48 3.98-3.01 3.5-3.47 3.97-3.01 3.5-3.48 3.99-3.95 3.48Z" class="viterex-13"></path><path d="M319.98 376.23c-1.67 2.77-4.11 4.97-6.38 7.45l-5.31 5.8-5.9 6.5-27.64 30.99c-.91 1.02-1.47 2-2.41 2.67-.33-.07-.52.05-1.25-.15 1.05-1.45.27-2.63.23-3.92l-.94-31-.34-14.34-.55-16.26-.52-17.26-.49-15.99-.36-15.27c-.02-1-.74-2.05-.05-3.03l7.1 8.65 11.48 13.46 3.05 3.69 6.56 8.01 11.59 13.86 2.82 3.17 5.23 6.32 3.54 4.27c.26.31 1.39.71 1.48 1.1s-.83 1.01-.95 1.28Z" class="viterex-6"></path><path d="M334.18 216.37c.06.96-.52 1.69-1.2 2.59l-29.38 38.87 32.95 23.93-60.63 26.42c-2.5 1.28-4.89 1.84-7.18 2.85-.06-.45.06-.74.39-1.23l34.09-51.69-11.06-10.78-8.46-8.04-9.46-8.94-5-4.48c-.03-.22-.13-.59-.05-.75.09-.18.48-.37.72-.35l64.27-8.38Z" class="viterex-4"></path><path d="m325.09 160.61 9.67 54.42c.39.57.07.96-.12 1.31-.1.23-.38.24-.45.03l-64.27 8.38c-.6-.46-.74-.91-.24-1.5l18.52-21.83 31.34-36.75c1.68-1.97 2.99-3.6 4.82-5.04.01.61.22.98.74.98Zm-56.35 150.42-.93.52-.1-2.44v-14.12l.62-68.02c0-.42.24-.76.34-.89s.4-.2.56-.21l5 4.48 9.46 8.94 8.46 8.04 11.06 10.78-34.09 51.69c-.33.49-.45.78-.39 1.23Z" class="viterex-12"></path><path fill="#dd337e" d="m172.22 341.53-49.34-41.81 52.26 1.19 13.9 15z"></path><path d="M548.46 127.68c.03.83 2.2-1.43 1.47-2.01-22.36-16.03-58.45-40.14-79.58-56.6-10.72-7.6-52.87-37.54-62.81-44.42-5.98-4.19-14.53-12.65-22.92-11.5-30.88 13.06-73.94 27.74-104.18 41.62-1.54-1.87-2.18.09-2.25.69s-2.44-.14-2.4.45c.02.56-1.87-.09-2.44.26-.77.47-1.22 1.89-1.79 1.81-2.13.69-7.65 2.53-9.28 4.08.19-.12-3.93 1.5-4.63.9.43.36-.38 3.16-2.62 1.02-.1-.05-.55 1.87-2.65 2.93-.08-.4-2.76-1.33-2.84-.65s-.65 2.99-2.29 1l-10.71 5.09c-1.47-1.38-1.19.17-1.8.18-6.36 3.26-14.64 5.75-20.54 10.33-7.45 12.17-19.26 43.7-24.06 56.94-5.66 1.85-8.31-2.66-13.66-2.24 1.33-3.54 3.88-6.82 3.98-11.27-.97-1.57-118.57-2.34-118.57-2.34s91.42-1.33 120.72-1.37l11.88-29.62C174.21 92 64.75 87.11 64.75 87.11s70.99-5.48 101.54-9.26l36.1-3.98 14.36-8.48-70.52-.18L228 61.02C267.46 46.59 341.55 13.49 381.73.92c17.53-6.47 46.18 24.24 59.94 31.59 21.13 14.29 54.23 38.48 75.36 53.65l35.05 23.94c16.43 11.22 14.98 22.54 14.25 38.78-3 49.29-4.38 123.47-7.31 172.16-2.11 10.73-9.02 17.13-18.25 22.01-51.87 26.77-203.01 107.57-203.01 107.57l29.75-33.64 163.64-86.19c6.45-3.3 12.56-7.91 12.83-16l1.41-42.27c.5-18.42 3.91-90.54 5-110.19-.56-6.61 3.16-29.17-1.93-34.63Z" class="viterex-5"></path><path d="M548.46 127.68c-2.64-3.92-30-21.35-34.27-24.9-22.97-14.53-45.93-33.53-68.6-49.04-11.43-7.99-34.76-24.58-46.14-32.79-8.8-6.3-17.16-5.55-26.63-1.45-36.75 15.54-108.08 42.79-145.46 58.86-4.65 1.91-11.48 3.97-13.58 9.05l-29.49 71.32c14.73-.06 70.72-.4 84.35-.18l-22.42 16.36-68.05.45-37.96 103.76 59.48.63-20.57 17.8-169.56-6.82 115.03-13.95s20.02-55.42 25.85-69.49l-85.46-.78 86.73-3.67 9.53-23.93c.49-1.22 2.03-2 .54-3.99.6.81-10.97-3.14-15.35-1.58-3.2 1.14-5.8-1.53-7.58-1.55-3.99-.03-7.71.85-11.59-1.32-16.98-2.14-38.77-2.5-55.77-4.91 1.46-2.13 1.09-3.54.2-4.17l-32.11-.72c24.57-.99 103.07-1.55 128.87-1.77l8.05-21.36c5.35-.42 8 4.09 13.66 2.24 4.77-13.2 16.62-44.8 24.06-56.94 5.89-4.57 14.19-7.08 20.54-10.33.6-.01.33-1.56 1.8-.18l10.71-5.09c1.64 1.99 2.21-.32 2.29-1s2.76.26 2.84.65c2.1-1.06 2.54-2.98 2.65-2.93 2.23 2.14 3.04-.66 2.62-1.02.7.59 4.82-1.03 4.63-.9 1.62-1.54 7.17-3.39 9.28-4.08.57.09 1.02-1.34 1.79-1.81.57-.35 2.46.29 2.44-.26-.04-.59 2.33.16 2.4-.45s.72-2.56 2.25-.69c30.14-13.84 73.35-28.61 104.18-41.62 8.39-1.15 16.94 7.31 22.92 11.5 9.71 6.72 52.35 37.01 62.81 44.42 21.05 16.41 57.35 40.64 79.58 56.6.73.58-1.44 2.84-1.47 2.01Zm-288.45 32.9-21.53-.44c2.49 3.59 2.15 7.77 1.75 10.97 6.94 3.35 13.07-4.01 19.78-10.53" class="viterex-14"></path><path d="m39.57 160.67 32.11.72c.89.64 1.26 2.05-.2 4.17 17.02 2.41 38.77 2.77 55.77 4.91 3.88 2.17 7.6 1.29 11.59 1.32 1.78.01 4.37 2.69 7.58 1.55 4.38-1.56 15.95 2.39 15.35 1.58 1.49 1.99-.06 2.77-.54 3.99-.09-1.45-.77-2.11-2.65-2.33C143.18 174.82 0 161.94 0 161.94l39.57-1.28Z" class="viterex-5"></path><path fill="#c52774" d="m131.86 256.74-3.5 9.6-62.29-6.48s49.53-2.13 65.79-3.12"></path><path fill="#c4247c" d="M51.53 342.55c5.54-1.21 6.78 7.55 2.31 9-5.6 1.5-9.17-6.52-2.31-9"></path><path fill="#f93b2e" d="M47.48 120.57c5.51-2.47 7.17 5.84 3.4 7.77-5.63 2.74-8.86-4.76-3.4-7.77"></path><path fill="#b2197d" d="M32.66 256.81c4.73-2.03 7.56 5.13 3.33 7.77-4.89 2.68-8.99-5.22-3.33-7.77"></path><path fill="#b72570" d="M132.75 400c-1.79 6.37-9.09 1.4-7.64-2.45 2.24-5.43 9.01-3.54 7.64 2.45"></path><path d="M260.01 160.58c-6.72 6.52-12.85 13.88-19.78 10.53.4-3.2.73-7.38-1.75-10.97z" class="viterex-5"></path><path d="m147.55 320.62-30.14-25.54 61.7 2.48-.29 7.31z" class="viterex-14"></path><style>@media (prefers-color-scheme: light) { :root { filter: none; } }
@media (prefers-color-scheme: dark) { :root { filter: none; } }
</style></svg>