<svg id="massif" xmlns="http://www.w3.org/2000/svg" viewBox="0 0 162.65 33.54">
  <path id="gfx"
    d="M0,0V33.54H43.6V0ZM5.92,24.89l5.54-9.49,3.72,9.49Zm11.27,0L10.82,8.65h9.24l6.37,16.24Zm11.24,0L22.06,8.65H31.3l6.37,16.24Z"
    fill="#ff269e" />
  <g id="massif-text">
    <path id="m" d="M70.46,5.72h2V27.78H66.72V18L62,22.88h-.63L56.76,18v9.8H51V5.72h2.08l8.61,9.55Z" fill="#1b1a21" />
    <path id="s1"
      d="M109.69,20.8c0-1.54-1.82-1.79-4-1.92-4.78-.35-7.92-2-8-6.76-.19-9.49,16.9-9.49,16.78,0h-5.34c0-2.92-5.91-2.67-6.1-.06-.13,1.66,1.51,2,3.49,2.23,4.37.47,8.64,1,8.64,6.54,0,9.24-17.91,9.49-17.79-.19h5.44C102.81,23.44,109.69,23.37,109.69,20.8Z"
      fill="#1b1a21" />
    <path id="s2"
      d="M130.13,20.8c0-1.54-1.82-1.79-4-1.92-4.77-.35-7.92-2-8-6.76-.19-9.49,16.91-9.49,16.78,0h-5.34c0-2.92-5.91-2.67-6.1-.06-.12,1.66,1.51,2,3.49,2.23,4.37.47,8.64,1,8.64,6.54,0,9.24-17.91,9.49-17.79-.19h5.43C123.25,23.44,130.13,23.37,130.13,20.8Z"
      fill="#1b1a21" />
    <path id="i" d="M144.73,22.89v4.93h-5.56V22.89h0V10.73h0V5.83h5.56v4.9h0V22.89Z" fill="#1b1a21" />
    <path id="f" d="M154.67,20.69v7.13h-5.72v-22h13.7v5h-8v4.81h7.07v5Z" fill="#1b1a21" />
    <path id="a" d="M86.89,5.55H84.47L74.57,27v.82h5.5l1.29-2.77H90l1.29,2.77h5.5V27ZM83.4,20l2.26-5.06L88,20Z"
      fill="#1b1a21" />
  </g>
</svg>